<?xml version="1.0" encoding="utf-8"?>
<!-- Generator: Adobe Illustrator 24.1.2, SVG Export Plug-In . SVG Version: 6.00 Build 0)  -->
<svg version="1.1" id="Layer_1" xmlns="http://www.w3.org/2000/svg" xmlns:xlink="http://www.w3.org/1999/xlink" x="0px" y="0px"
	 viewBox="0 0 241 184" style="enable-background:new 0 0 241 184;" xml:space="preserve">
<style type="text/css">
	.st0{fill:#516C81;}
	.st1{fill:#E20613;}
	.st2{fill:#231F53;}
	.st3{fill:#FFFFFF;}
</style>
<g>
	<path id="XMLID_658_" class="st0" d="M192.99,77.05h-70.43h-0.83H51.29c-3.45,0-6.44,1.93-7.98,4.77l56.25,45.37h22.16h0.83h22.16
		l56.25-45.37C199.43,78.98,196.43,77.05,192.99,77.05z"/>
	<polygon id="XMLID_657_" class="st1" points="200.62,80.93 122.16,3.69 122.16,3.23 121.93,3.46 121.7,3.23 121.7,3.69 
		43.24,80.93 	"/>
	<rect id="XMLID_656_" x="59.95" y="44.24" class="st2" width="124.39" height="86.92"/>
	<rect id="XMLID_655_" x="81.43" y="68.42" class="st3" width="81.44" height="5.17"/>
	<rect id="XMLID_654_" x="81.43" y="87.59" class="st3" width="81.44" height="5.17"/>
	<path id="XMLID_653_" class="st1" d="M58.81,177.77l64.28-46.61L43.32,81.79c-0.69,1.28-1.09,2.75-1.09,4.32v79.04
		c0,6.97,5.65,12.61,12.61,12.61H58.81z"/>
	<path id="XMLID_652_" class="st1" d="M189.16,177.77c6.97,0,12.61-5.65,12.61-12.61V86.11c0-1.56-0.4-3.03-1.09-4.32l-79.77,49.37
		l64.28,46.61H189.16z"/>
	<polygon id="XMLID_651_" class="st1" points="173.79,177.77 122.19,139.54 70.36,177.77 	"/>
</g>
</svg>
