<?xml version="1.0" encoding="utf-8"?>
<!-- Generator: Adobe Illustrator 24.1.2, SVG Export Plug-In . SVG Version: 6.00 Build 0)  -->
<svg version="1.1" id="Layer_1" xmlns="http://www.w3.org/2000/svg" xmlns:xlink="http://www.w3.org/1999/xlink" x="0px" y="0px"
	 viewBox="0 0 241 184" style="enable-background:new 0 0 241 184;" xml:space="preserve">
<style type="text/css">
	.st0{fill:#E20613;}
	.st1{fill:#231F53;}
</style>
<g>
	<path class="st0" d="M189.1,131.9V27.1C189.1,15.5,179.7,6,168,6H93c-11.7,0-21.1,9.5-21.1,21.1v104.7H189.1z M130.5,19.2
		c3.5,0,6.3,2.8,6.3,6.3c0,3.5-2.8,6.3-6.3,6.3c-3.5,0-6.3-2.8-6.3-6.3C124.2,22,127,19.2,130.5,19.2z"/>
	<path class="st0" d="M71.9,144.5v13.3c0,11.7,9.5,21.1,21.1,21.1h75c11.7,0,21.1-9.5,21.1-21.1v-13.3H71.9z M130.5,167.2
		c-3.5,0-6.3-2.8-6.3-6.3c0-3.5,2.8-6.3,6.3-6.3c3.5,0,6.3,2.8,6.3,6.3C136.8,164.4,134,167.2,130.5,167.2z"/>
</g>
<path class="st1" d="M131.8,35.1c5.3,0,9.6-4.3,9.6-9.6c0-5.3-4.3-9.6-9.6-9.6c-5.3,0-9.6,4.3-9.6,9.6
	C122.2,30.8,126.5,35.1,131.8,35.1z"/>
<path class="st1" d="M131.8,171.4c5.3,0,9.6-4.3,9.6-9.6c0-5.3-4.3-9.6-9.6-9.6c-5.3,0-9.6,4.3-9.6,9.6
	C122.2,167.1,126.5,171.4,131.8,171.4z"/>
</svg>
