<?xml version="1.0" encoding="utf-8"?>
<!-- Generator: Adobe Illustrator 24.1.2, SVG Export Plug-In . SVG Version: 6.00 Build 0)  -->
<svg version="1.1" id="Layer_1" xmlns="http://www.w3.org/2000/svg" xmlns:xlink="http://www.w3.org/1999/xlink" x="0px" y="0px"
	 viewBox="0 0 241 184" style="enable-background:new 0 0 241 184;" xml:space="preserve">
<style type="text/css">
	.st0{fill:#E20613;}
	.st1{fill:#231F53;}
	.st2{fill:#FFFFFA;}
</style>
<path id="XMLID_937_" class="st0" d="M221.1,125.97c0,0-30.67-85.57-54.43-85.57h-28.99h-27.36H81.33
	c-23.76,0-54.43,85.57-54.43,85.57c-8.28,23.5,9.24,37.26,17.14,37.26h66.27h27.36h66.27C211.86,163.22,229.37,149.46,221.1,125.97z
	"/>
<path id="XMLID_460_" class="st1" d="M48.06,75.73c16.15,0.16,25.81-3.45,26.27-16.49l0.03-3.41c11.3-15.67,40.94-12.15,47.16-12.99
	c6.2,0.97,35.91-1.96,46.89,13.94l-0.03,3.41c0.2,13.05,9.79,16.86,25.93,17.02l0,0c14.36,0.15,26.08,2.58,26.19-8.3l0.07-6.82
	c0.09-8.36-2.45-16.04-6.66-21.83l0,0c0,0-9.61-15.92-32.98-22.84c-6.18-1.83-12.52-2.7-18.88-2.77l-40.24-0.41l-40.24-0.41
	c-6.36-0.06-12.72,0.68-18.93,2.39c-23.5,6.44-33.44,22.17-33.44,22.17l0,0c-4.32,5.7-7.01,13.32-7.1,21.69l-0.07,6.82
	C21.93,77.79,33.71,75.59,48.06,75.73L48.06,75.73z"/>
<path id="XMLID_939_" class="st2" d="M101.69,66.37H86.98c-1.7,0-3.07,1.38-3.07,3.07v3.43c0,1.7,1.38,3.07,3.07,3.07h14.71
	c1.7,0,3.07-1.38,3.07-3.07v-3.43C104.76,67.75,103.38,66.37,101.69,66.37z"/>
<path id="XMLID_940_" class="st2" d="M128.51,66.37h-14.27c-1.82,0-3.29,1.47-3.29,3.29v2.99c0,1.82,1.47,3.29,3.29,3.29h14.27
	c1.82,0,3.29-1.47,3.29-3.29v-2.99C131.8,67.85,130.33,66.37,128.51,66.37z"/>
<path id="XMLID_459_" class="st2" d="M155.77,66.37h-14.71c-1.7,0-3.07,1.38-3.07,3.07v3.43c0,1.7,1.38,3.07,3.07,3.07h14.71
	c1.7,0,3.07-1.38,3.07-3.07v-3.43C158.84,67.75,157.47,66.37,155.77,66.37z"/>
<path id="XMLID_942_" class="st2" d="M101.71,88.81H86.95c-1.68,0-3.05,1.36-3.05,3.05v3.48c0,1.68,1.36,3.05,3.05,3.05h14.76
	c1.68,0,3.05-1.36,3.05-3.05v-3.48C104.76,90.17,103.39,88.81,101.71,88.81z"/>
<path id="XMLID_943_" class="st2" d="M128.51,88.81h-14.27c-1.82,0-3.29,1.47-3.29,3.29v2.99c0,1.82,1.47,3.29,3.29,3.29h14.27
	c1.82,0,3.29-1.47,3.29-3.29V92.1C131.8,90.28,130.33,88.81,128.51,88.81z"/>
<path id="XMLID_458_" class="st2" d="M155.8,88.81h-14.76c-1.68,0-3.05,1.36-3.05,3.05v3.48c0,1.68,1.36,3.05,3.05,3.05h14.76
	c1.68,0,3.05-1.36,3.05-3.05v-3.48C158.84,90.17,157.48,88.81,155.8,88.81z"/>
<path id="XMLID_945_" class="st2" d="M101.69,111.24H86.98c-1.7,0-3.07,1.38-3.07,3.07v3.43c0,1.7,1.38,3.07,3.07,3.07h14.71
	c1.7,0,3.07-1.38,3.07-3.07v-3.43C104.76,112.62,103.38,111.24,101.69,111.24z"/>
<path id="XMLID_946_" class="st2" d="M128.51,111.24h-14.27c-1.82,0-3.29,1.47-3.29,3.29v2.99c0,1.82,1.47,3.29,3.29,3.29h14.27
	c1.82,0,3.29-1.47,3.29-3.29v-2.99C131.8,112.71,130.33,111.24,128.51,111.24z"/>
<path id="XMLID_457_" class="st2" d="M155.77,111.24h-14.71c-1.7,0-3.07,1.38-3.07,3.07v3.43c0,1.7,1.38,3.07,3.07,3.07h14.71
	c1.7,0,3.07-1.38,3.07-3.07v-3.43C158.84,112.62,157.47,111.24,155.77,111.24z"/>
</svg>
